<svg width="14" height="14" viewBox="0 0 14 14" fill="none" xmlns="http://www.w3.org/2000/svg">
<path d="M7 14C10.866 14 14 10.866 14 7C14 3.13401 10.866 0 7 0C3.13401 0 0 3.13401 0 7C0 10.866 3.13401 14 7 14Z" fill="#25D366"/>
<path fill-rule="evenodd" clip-rule="evenodd" d="M7.23074 10.8945H7.22901C6.53238 10.8942 5.84787 10.7194 5.2399 10.3878L3.03334 10.9667L3.62385 8.80973C3.2596 8.17847 3.06793 7.46242 3.06824 6.72881C3.06915 4.43381 4.93641 2.56665 7.2307 2.56665C8.34419 2.56713 9.38929 3.00061 10.1751 3.7874C10.961 4.57414 11.3936 5.61991 11.3931 6.73209C11.3922 9.02656 9.52569 10.8935 7.23074 10.8945ZM5.34228 9.63432L5.46862 9.70929C5.99979 10.0245 6.60868 10.1913 7.22948 10.1915H7.23089C9.13773 10.1915 10.6897 8.63951 10.6905 6.73188C10.6908 5.80745 10.3313 4.93825 9.67814 4.2843C9.02496 3.63036 8.15632 3.27005 7.23225 3.26973C5.32393 3.26973 3.77192 4.82159 3.77117 6.72908C3.7709 7.38279 3.95381 8.01943 4.30012 8.57024L4.38238 8.70114L4.03288 9.9778L5.34228 9.63432ZM9.18516 7.62823C9.2577 7.66329 9.30668 7.68696 9.3276 7.72188C9.35359 7.76524 9.35359 7.97348 9.26697 8.21646C9.18026 8.4594 8.76477 8.68113 8.56493 8.71098C8.38575 8.73777 8.159 8.74894 7.90986 8.66976C7.7588 8.62184 7.56509 8.55784 7.31695 8.45068C6.34192 8.02967 5.68301 7.08466 5.55847 6.90606C5.54975 6.89354 5.54365 6.88479 5.54024 6.88025L5.53941 6.87913C5.48436 6.80569 5.11557 6.31362 5.11557 5.80436C5.11557 5.32528 5.3509 5.07418 5.45922 4.95859C5.46664 4.95067 5.47346 4.94339 5.47958 4.93672C5.57491 4.83259 5.68759 4.80656 5.75692 4.80656C5.82625 4.80656 5.89566 4.8072 5.95626 4.81024C5.96373 4.81062 5.97151 4.81057 5.97955 4.81053C6.04016 4.81017 6.11572 4.80973 6.19026 4.98878C6.21894 5.05768 6.2609 5.15984 6.30515 5.26758C6.39465 5.48546 6.49353 5.72619 6.51093 5.76102C6.53693 5.81309 6.55426 5.8738 6.5196 5.94324C6.51439 5.95365 6.50958 5.96348 6.50498 5.97287C6.47894 6.02603 6.45979 6.06513 6.4156 6.11673C6.39822 6.13702 6.38026 6.15889 6.3623 6.18077C6.32652 6.22434 6.29074 6.26791 6.25958 6.29895C6.20752 6.35081 6.15332 6.40708 6.21399 6.5112C6.27465 6.61533 6.48338 6.9559 6.79257 7.23169C7.12493 7.52814 7.4138 7.65344 7.56022 7.71695C7.58881 7.72935 7.61197 7.7394 7.62896 7.7479C7.73293 7.79998 7.7936 7.79127 7.85427 7.72188C7.91495 7.65247 8.11427 7.41817 8.18359 7.31407C8.25291 7.20998 8.32228 7.22732 8.41759 7.26201C8.51294 7.29676 9.02428 7.54833 9.12828 7.60039C9.14859 7.61055 9.16757 7.61973 9.18516 7.62823Z" fill="#FDFDFD"/>
</svg>
