<?xml version="1.0" encoding="utf-8"?>
<!-- Generator: Adobe Illustrator 22.0.1, SVG Export Plug-In . SVG Version: 6.00 Build 0)  -->
<svg version="1.1" id="Layer_1" xmlns="http://www.w3.org/2000/svg" xmlns:xlink="http://www.w3.org/1999/xlink" x="0px" y="0px"
	 viewBox="0 0 44 44" enable-background="new 0 0 44 44" xml:space="preserve">
<g id="trlg">
	<path fill="#4285F4" d="M41.47,22.46062c0-1.43773-0.12891-2.82133-0.36868-4.1482H22v7.84523h10.91492
		c-0.47008,2.53516-1.89922,4.68273-4.0468,6.12133v5.08836h6.55445C39.25797,33.83617,41.47,28.63695,41.47,22.46062z"/>
	<path fill="#34A853" d="M22,42.28125c5.47594,0,10.06672-1.81586,13.42258-4.91391l-6.55445-5.08836
		C27.05227,33.49586,24.72852,34.21516,22,34.21516c-5.28258,0-9.75305-3.56726-11.34805-8.36172H3.87578v5.25508
		C7.21273,37.73688,14.07141,42.28125,22,42.28125z"/>
	<path fill="#FBBC05" d="M10.65195,25.85344C10.24633,24.63656,10.01602,23.33633,10.01602,22s0.23031-2.63656,0.63594-3.85344
		v-5.25508H3.87578C2.5025,15.62945,1.71875,18.7275,1.71875,22s0.78375,6.37055,2.15703,9.10851L10.65195,25.85344z"/>
	<path fill="#EA4335" d="M22,9.78484c2.97773,0,5.65125,1.02352,7.75328,3.03273l5.81711-5.81711
		C32.05727,3.72883,27.46648,1.71875,22,1.71875c-7.92773,0-14.78727,4.54523-18.12422,11.17273l6.77617,5.25508
		C12.24695,13.35297,16.71828,9.78484,22,9.78484z"/>
	<path fill="none" d="M1.71875,1.71875h40.5625v40.5625H1.71875V1.71875z"/>
</g>
</svg>
