<?xml version="1.0" encoding="utf-8"?>
<!-- Generator: Adobe Illustrator 27.2.0, SVG Export Plug-In . SVG Version: 6.00 Build 0)  -->
<!DOCTYPE svg PUBLIC "-//W3C//DTD SVG 1.1//EN" "http://www.w3.org/Graphics/SVG/1.1/DTD/svg11.dtd" [
	<!ENTITY ns_extend "http://ns.adobe.com/Extensibility/1.0/">
	<!ENTITY ns_ai "http://ns.adobe.com/AdobeIllustrator/10.0/">
	<!ENTITY ns_graphs "http://ns.adobe.com/Graphs/1.0/">
	<!ENTITY ns_vars "http://ns.adobe.com/Variables/1.0/">
	<!ENTITY ns_imrep "http://ns.adobe.com/ImageReplacement/1.0/">
	<!ENTITY ns_sfw "http://ns.adobe.com/SaveForWeb/1.0/">
	<!ENTITY ns_custom "http://ns.adobe.com/GenericCustomNamespace/1.0/">
	<!ENTITY ns_adobe_xpath "http://ns.adobe.com/XPath/1.0/">
]>
<svg version="1.1" id="Layer_5" xmlns:x="&ns_extend;" xmlns:i="&ns_ai;" xmlns:graph="&ns_graphs;"
	 xmlns="http://www.w3.org/2000/svg" xmlns:xlink="http://www.w3.org/1999/xlink" x="0px" y="0px" viewBox="0 0 90 90"
	 style="enable-background:new 0 0 90 90;" xml:space="preserve">
<style type="text/css">
	.st0{fill:#FFFFFF;}
	.st1{fill:#7D51A0;}
</style>
<metadata>
	<sfw  xmlns="&ns_sfw;">
		<slices></slices>
		<sliceSourceBounds  bottomLeftOrigin="true" height="90" width="90" x="5" y="5"></sliceSourceBounds>
	</sfw>
</metadata>
<ellipse class="st0" cx="44.9720268" cy="45.3846169" rx="36.5104904" ry="37.0909081"/>
<path class="st1" d="M45,0C20.1469994,0,0,20.1469994,0,45s20.1469994,45,45,45s45-20.1470032,45-45S69.8529968,0,45,0z
	 M44.4640007,19.3120003c0.1450005-0.6189995,0.7080002-0.8959999,0.8069992-0.9449997
	c0.2589989-0.1280003,0.4900017-0.1469994,0.9539986-0.1870003c0,0,0.3989983-0.0259991,0.7490005-0.0160007
	c11.8979988,0.3190002,22.173996,8.7660007,23.6539993,21.5619984c0.098999,0.8549995,0.2679977,1.8660011,0.3170013,3.947998
	c0.0100021,0.4169998,0.0169983,1.1739998-0.4950027,1.6619987c-0.2310028,0.2200012-0.4960022,0.3180008-0.6809998,0.3660011
	c-0.2570038-0.0569992-0.6620026-0.1870003-0.9729996-0.5279999c-0.4209976-0.4620018-0.4440002-1.0629997-0.4550018-1.269001
	c-0.125-2.3230019-0.4540024-4.644001-0.987999-6.9090004C65.375,28.5989952,57.7519989,21.9719944,49.1649971,21.0119934
	c-0.9980011-0.1119995-1.9990005-0.2220001-3.0019989-0.2679996c-0.6800003-0.0310001-1.355999-0.1569996-1.6220016-0.6130009
	C44.3479996,19.7959995,44.4430008,19.4029999,44.4640007,19.3120003z M49.137001,27.2190018
	c-0.0219994-0.0040016-0.5009995-0.007-1.1069984-0.1660004c-0.4770012-0.125-0.848999-0.2280006-1.132-0.5550003
	c-0.2680016-0.3099995-0.3409996-0.6900005-0.3520012-0.973999c0.0610008-0.2189999,0.1899986-0.5480003,0.4869995-0.7880001
	c0.4189987-0.3390007,0.9480019-0.3190002,1.1969986-0.3069992C55.243,24.7790031,59.3959961,28.840004,59.3959961,28.840004
	c0.3600006,0.3520012,1.8669968,1.8580017,3.1780014,4.3009987c1.5810013,2.9459991,2.0370026,5.6889992,2.1839981,7.3689995
	c0.0360031,0.3829994,0.026001,0.9510002-0.237999,1.5349998c-0.1090012,0.2400017-0.2320023,0.5050011-0.5210037,0.7140007
	c-0.3509979,0.2540016-0.7310028,0.2729988-0.8939972,0.2709999c-0.1809998-0.0680008-0.4069977-0.1839981-0.6060028-0.3899994
	c-0.2570038-0.2659988-0.375-0.5559998-0.3880005-0.6759987c-0.3700027-3.2190018-0.8740005-6.362999-2.8540039-9.0820007
	C56.743,29.4319992,53.1829987,27.9029999,49.137001,27.2190018z M58.3079987,39.4510002
	c-0.0680008,0.9329987-0.4469986,1.2770004-0.5419998,1.3580017c-0.2830009,0.2389984-0.6100006,0.3050003-0.8079987,0.3269997
	c-0.2290001-0.0449982-0.5540009-0.1469994-0.8180008-0.4080009c-0.3909988-0.387001-0.4410019-0.9189987-0.4609985-1.0929985
	c-0.0929985-0.8069992-0.6720009-3.3889999-1.993-4.5800018c-0.8260002-0.7449989-1.9669991-1.1380005-3.6360016-1.3800011
	c-0.6699982-0.0970001-1.3199997-0.2330017-1.5550003-0.6769981c-0.1790009-0.3390007-0.0569992-0.7220001-0.0200005-0.8429985
	c0.2739983-0.8839989,1.3460007-1.1389999,1.4309998-1.1570015C50.618,31.0979996,55.1689987,31.7989998,57.25,35.1830025
	C58.3759995,37.0139999,58.3460007,38.9300003,58.3079987,39.4510002z M70.8410034,64.5169983
	c-1.7070007,2.0790024-3.3560028,4.2679977-5.3779984,6.0080032c-1.7360001,1.4930038-4.0059967,1.6729965-6.2649994,0.75
	C40.6390076,63.697998,27.3280029,50.8160019,19.6510048,32.2240028c-0.1930008-0.4659996-0.3490009-0.9480019-0.5130005-1.4249992
	c-1.4370003-4.1730003-1.0039997-5.7940006,2.4200001-8.6009998c1.1189995-0.9179993,2.3169994-1.7490005,3.5319996-2.5380001
	c2.0419998-1.3260002,4.288002-1.3099995,5.8320007,0.5499992c2.5660019,3.0930004,5.0139999,6.3290005,7.1199989,9.7459984
	c1.5719986,2.5509987,1.0099983,3.9949989-1.2970009,5.9160004c-0.5330009,0.4440002-1.1049995,0.8419991-1.6389999,1.2849998
	c-1.3349991,1.1090012-1.8989983,2.4309998-1.3100014,4.1850014c2.5810013,7.6899986,7.9669991,12.552002,15.4750023,15.1350021
	c0.8730011,0.2999992,2.2369995-0.3740005,3.1920013-0.9160004c0.7130013-0.4049988,1.1310005-1.3269997,1.6829987-2.0169983
	c1.4910011-1.8650017,3.9029999-2.6539993,5.8939972-1.3909988c3.5589981,2.2579994,6.9690018,4.7659988,10.314003,7.3349991
	c0.7170029,0.5510025,0.8909988,1.8079987,1.2779999,2.6569977C71.3190002,63.1360016,71.276001,63.9869995,70.8410034,64.5169983z"
	/>
</svg>
