<svg width="40" height="40" viewBox="0 0 40 40" fill="none" xmlns="http://www.w3.org/2000/svg">
<path d="M37.2564 18.4138H38.9999C38.7794 16.7586 37.5401 15.8885 35.8175 15.8885C34.074 15.8885 32.9082 16.7904 32.9082 18.3395C32.9082 20.1008 34.4101 20.4933 35.2083 20.6525C36.2376 20.8541 37.2459 20.8753 37.2459 21.7665C37.2459 22.3713 36.7418 22.6684 36.0276 22.6684C35.1453 22.6684 34.5572 22.2228 34.4101 21.4164H32.6876C32.7926 23.1565 34.0425 24.0901 35.8806 24.0901C37.582 24.0901 38.9789 23.305 38.9789 21.6074C38.9789 19.7824 37.372 19.4535 36.2481 19.2838C35.4814 19.1671 34.6412 19.061 34.6412 18.244C34.6412 17.671 35.0718 17.3209 35.7965 17.3209C36.6368 17.3209 37.1409 17.7984 37.2564 18.4138Z" fill="white"/>
<path d="M31.7319 16.1539H30.0829V23.8462H31.7319V16.1539Z" fill="white"/>
<path d="M25.1044 21.1618H27.2576C26.9215 21.9895 26.1652 22.3819 25.2935 22.3819C23.7601 22.3819 23.0459 21.183 23.0459 19.9947C23.0459 18.7958 23.718 17.5756 25.283 17.5756C26.2388 17.5756 26.9529 18.0212 27.2261 18.817L29.001 18.817C28.6965 17.0239 27.142 15.9948 25.304 15.9948C23.0354 15.9948 21.3339 17.5544 21.3339 20.0159C21.3339 22.5093 23.1824 23.9841 25.2935 23.9841C27.3731 23.9841 29.001 22.6154 29.001 20.4722V19.8462H25.1044V21.1618Z" fill="white"/>
<path d="M17.5633 15.9948C15.6727 15.9948 14.2758 17.1937 14.2863 19.1883H15.9878C15.9668 18.3183 16.5129 17.5226 17.4792 17.5226C18.3195 17.5226 18.8131 18.1168 18.8131 18.7958C18.8131 19.4748 18.3195 19.8568 17.4057 20.2706C16.1558 20.8329 15.2631 21.1937 14.3493 21.512V23.8462H20.7142V22.2759H16.3446C16.3446 22.2759 16.3592 22.2713 16.3663 22.2691C17.1096 22.0416 17.6679 21.7945 18.33 21.5014C19.7479 20.8648 20.5566 20.069 20.5566 18.7109C20.5566 17.0451 19.3383 15.9948 17.5633 15.9948Z" fill="white"/>
<path d="M9.81204 21.1406C7.66941 21.1512 7.32281 22.4563 7.2073 23.5597L7.1548 24.0477H6.72413L6.67163 23.5597C6.55612 22.4563 6.19902 21.1512 4.1299 21.1406C3.7833 20.4191 3.63626 19.8355 3.63626 19.1777C3.63626 17.5332 4.97016 15.9947 6.94469 15.9947C8.91927 15.9947 10.2321 17.5225 10.2321 19.1884C10.2322 19.8355 10.1691 20.4191 9.81204 21.1406ZM6.92372 14C3.6678 14 1 16.695 1 19.9947C1 23.305 3.6678 26 6.92372 26C10.2111 26 12.8684 23.305 12.8684 19.9947C12.8684 16.695 10.2111 14 6.92372 14Z" fill="#29B24A"/>
</svg>
