<svg xmlns="http://www.w3.org/2000/svg" version="1.1" xmlns:xlink="http://www.w3.org/1999/xlink" xmlns:svgjs="http://svgjs.dev/svgjs" width="735.5" height="362.6"><svg version="1.1" id="SvgjsSvg1009" xmlns:x="&amp;ns_extend;" xmlns:i="&amp;ns_ai;" xmlns:graph="&amp;ns_graphs;" xmlns="http://www.w3.org/2000/svg" xmlns:xlink="http://www.w3.org/1999/xlink" x="0px" y="0px" viewBox="0 0 735.5 362.6" style="enable-background:new 0 0 735.5 362.6;" xml:space="preserve">
<style type="text/css">
	.st0{fill:#E1011B;}
	.st1{fill:#F9D87B;}
	.st2{fill:#F39502;}
</style>
<metadata>
	<sfw xmlns="&amp;ns_sfw;">
		<slices></slices>
		<slicesourcebounds bottomleftorigin="true" height="361.4" width="731.5" x="0.5" y="106.2"></slicesourcebounds>
	</sfw>
</metadata>
<g id="SvgjsG1008">
</g>
<g id="SvgjsG1007">
	<path class="st0" d="M265.8,1.9c3.7-2.1,8.1-1.7,12.2-1.9c4,0,8,0,11.9,0.5c4.9,1.6,9.4,4.2,13.6,7.1C336.4,31.3,369,55.4,401.9,79
		c8.5,5.9,17.2,12.5,22,22c9.1,17.6,3.5,41.4-13,52.7c-32,23.6-64.1,47.1-96.6,70.1c0.8,1.3,1.5,2.7,2.9,3.6
		c30.4,22.1,60.8,44.1,91.3,66.1c14.6,10.5,28.9,21.5,43.8,31.5c0.9,1.9,0.2,4.3-1.2,5.8c-8,9.9-14.7,20.8-22.9,30.6
		c-1.6,0.1-3.2-0.1-4.4-1.2c-31.4-22.9-62.9-45.7-94.3-68.6c-14.3-10.2-28.3-20.8-42.9-30.6c-0.6,14.6,0.3,29.4-0.7,44
		c1,14,0.2,28.2,0.6,42.3c-0.4,0.5-1.2,1.5-1.6,2c-7.3,0.6-14.6,0.1-21.9,0.3c-6.7-0.1-13.4,0.4-20.1-0.3c-0.4-0.2-1.2-0.6-1.6-0.8
		c0.2-104.5-0.1-208.9,0.1-313.4C242,20.3,252.5,7.3,265.8,1.9 M286.3,52c0.1,45.3,0,90.6,0.1,135.9c0.7-0.1,2.1-0.4,2.8-0.5
		c11.1-8.4,22.4-16.6,33.8-24.7c17.4-12.6,34.6-25.4,52-37.9c2.1-1.5,4.2-3,6.1-4.9c-0.9-1-1.7-2.1-2.8-2.9
		c-29.2-20.8-57.9-42.2-87.1-63.1C289.7,52.8,288,52.3,286.3,52z"></path>
	<path class="st0" d="M588.5,155.4c6.9-1.6,14.5,0.6,19.4,5.6c4.7,4.6,6.9,11.4,6,17.9c-0.9,6.6-5.2,12.6-11.1,15.6
		c-6.2,3.3-14,3.2-20.1-0.4c-6.8-3.8-11.1-11.5-10.6-19.3C572.4,165.7,579.5,157.3,588.5,155.4z"></path>
</g>
<g id="SvgjsG1006">
	<path class="st1" d="M561.9,16.7C567.6,8.8,576.4,3,586,1.4c7.7-0.4,15.8-1,22.9,2.7c6.2,2.6,11.3,7.2,15.3,12.4
		c31.1,42.4,62.1,84.8,93.2,127.2c3.1,4.4,6.6,8.7,9.5,13.3c7.5,12.8,6.6,29.8-2.2,41.8c-33.7,46-67.6,92.1-101.4,138.2
		c-4,5.6-9.9,9.4-16.2,12.1c-9.1,3.2-19.1,3.3-28.1,0c-10.3-4-17.2-13.1-23.2-21.9c-31.4-42.9-62.9-85.8-94.3-128.7
		c-6.4-8.4-8.1-19.4-6.7-29.7c0.8-1.2,0.8-2.7,1-4.1c1-1.8,1.5-3.9,2.5-5.7c0.6-1.4,1.3-2.8,2.2-4
		C494.3,108.9,528.1,62.8,561.9,16.7 M591.9,50.4c-0.7,2.3-2.4,3.9-3.7,5.8c-19.6,26.9-39.4,53.8-59.1,80.7
		c-9.7,13-18.9,26.3-28.8,39.1c30.7,42.2,61.8,84.2,92.5,126.5c0.3-0.1,1-0.3,1.3-0.4c3.1-5.1,7-9.8,10.4-14.6
		c18.3-25,36.6-50,54.9-75c8.7-12.1,17.9-23.9,26.3-36.3c-24.5-33.8-49.3-67.4-73.9-101.1c-5.8-8.2-12.2-16.1-17.6-24.6
		C593.4,50.4,592.7,50.4,591.9,50.4z"></path>
</g>
<g id="SvgjsG1005">
	<path class="st2" d="M11.7,13.7C21.8,5.1,36.7,3,49.1,7.5c42.3,15.3,84.5,30.7,126.7,46c12.6,4.5,23.4,15.8,24.9,29.4
		c0.2,33.7,0,67.3,0.1,101c0.5,9.4-4.3,18.4-11.1,24.6c-4.7,4.8-11,7.4-17.1,9.7C137.4,231,102.2,243.7,67,256.5
		c-7.2,2.8-14.5,5-21.6,8.1c0.1,26.4-0.1,52.9,0,79.3c0.1,1.9-0.4,3.7-1.2,5.4c-14.5,0.1-29.1,0.1-43.6,0.1
		c-0.2-103.8,0-207.7-0.1-311.5C0,28.6,4.7,19.6,11.7,13.7 M45.5,54c-0.2,54.2-0.1,108.5,0,162.7c0.6-0.2,1.8-0.5,2.3-0.6
		c35.1-12.8,70.1-25.7,105.2-38.1c1.3-0.4,2.4-1.2,3.4-2c0.4-27.1-0.1-54.2,0.3-81.4c-1.5-0.8-3-1.6-4.5-2.2
		c-32.8-11.9-65.6-23.8-98.3-35.7C51.1,55.7,48.4,54.4,45.5,54z"></path>
</g>
</svg><style>@media (prefers-color-scheme: light) { :root { filter: none; } }
@media (prefers-color-scheme: dark) { :root { filter: none; } }
</style></svg>