<svg width="136" height="136" viewBox="0 0 136 136" fill="none" xmlns="http://www.w3.org/2000/svg">
<path d="M123.25 8.49999C123.222 33.9309 113.094 58.3093 95.0936 76.2738C77.0933 94.2382 52.6947 104.318 27.2637 104.295L47.4725 124.504C48.2036 125.313 48.5954 126.373 48.5666 127.464C48.5378 128.555 48.0908 129.592 47.318 130.362C46.5452 131.133 45.5058 131.576 44.4151 131.601C43.3244 131.626 42.2659 131.23 41.4587 130.496L14.0037 103.041C13.6086 102.647 13.2951 102.178 13.0812 101.662C12.8674 101.146 12.7573 100.593 12.7573 100.034C12.7573 99.4758 12.8674 98.9228 13.0812 98.4069C13.2951 97.8909 13.6086 97.4222 14.0037 97.0275L41.4587 69.5725C41.8536 69.1776 42.3224 68.8644 42.8383 68.6507C43.3542 68.437 43.9072 68.327 44.4656 68.327C45.024 68.327 45.577 68.437 46.0929 68.6507C46.6088 68.8644 47.0776 69.1776 47.4725 69.5725C47.8674 69.9674 48.1806 70.4361 48.3943 70.9521C48.608 71.468 48.718 72.0209 48.718 72.5794C48.718 73.1378 48.608 73.6907 48.3943 74.2067C48.1806 74.7226 47.8674 75.1914 47.4725 75.5862L27.2637 95.795C50.4403 95.8175 72.6769 86.6338 89.0832 70.2634C105.489 53.893 114.722 31.6766 114.75 8.49999C114.75 7.37282 115.198 6.29181 115.995 5.49478C116.792 4.69775 117.873 4.24999 119 4.24999C120.127 4.24999 121.208 4.69775 122.005 5.49478C122.802 6.29181 123.25 7.37282 123.25 8.49999Z" fill="white" fill-opacity="0.25"/>
</svg>
