<?xml version="1.0" encoding="utf-8"?>
<!-- Generator: Adobe Illustrator 27.2.0, SVG Export Plug-In . SVG Version: 6.00 Build 0)  -->
<!DOCTYPE svg PUBLIC "-//W3C//DTD SVG 1.1//EN" "http://www.w3.org/Graphics/SVG/1.1/DTD/svg11.dtd" [
	<!ENTITY ns_extend "http://ns.adobe.com/Extensibility/1.0/">
	<!ENTITY ns_ai "http://ns.adobe.com/AdobeIllustrator/10.0/">
	<!ENTITY ns_graphs "http://ns.adobe.com/Graphs/1.0/">
	<!ENTITY ns_vars "http://ns.adobe.com/Variables/1.0/">
	<!ENTITY ns_imrep "http://ns.adobe.com/ImageReplacement/1.0/">
	<!ENTITY ns_sfw "http://ns.adobe.com/SaveForWeb/1.0/">
	<!ENTITY ns_custom "http://ns.adobe.com/GenericCustomNamespace/1.0/">
	<!ENTITY ns_adobe_xpath "http://ns.adobe.com/XPath/1.0/">
]>
<svg version="1.1" id="Layer_1" xmlns:x="&ns_extend;" xmlns:i="&ns_ai;" xmlns:graph="&ns_graphs;"
	 xmlns="http://www.w3.org/2000/svg" xmlns:xlink="http://www.w3.org/1999/xlink" x="0px" y="0px" viewBox="0 0 300 300"
	 style="enable-background:new 0 0 300 300;" xml:space="preserve">
<style type="text/css">
	.st0{fill:#FFFFFF;}
	.st1{fill:#FF0000;}
</style>
<metadata>
	<sfw  xmlns="&ns_sfw;">
		<slices></slices>
		<sliceSourceBounds  bottomLeftOrigin="true" height="300" width="300" x="0" y="0"></sliceSourceBounds>
	</sfw>
</metadata>
<rect x="99" y="99" class="st0" width="111.5" height="111.5"/>
<g transform="scale(.75)">
	<path class="st1" d="M0,0h400v400H0V0z"/>
	<path class="st0" d="M199.9,101.8c0,0-87.7,0-109.7,5.7c-11.8,3.3-21.5,13-24.8,25c-5.7,22-5.7,67.6-5.7,67.6s0,45.8,5.7,67.4
		c3.3,12,12.8,21.5,24.8,24.8c22.2,5.9,109.7,5.9,109.7,5.9s87.9,0,109.9-5.7c12-3.3,21.5-12.6,24.6-24.8
		c5.9-21.8,5.9-67.4,5.9-67.4s0.2-45.8-5.9-67.8c-3.1-12-12.6-21.5-24.6-24.6C287.8,101.8,199.9,101.8,199.9,101.8L199.9,101.8z
		 M172,158l73,42.1L172,242V158z"/>
</g>
</svg>
