<svg xmlns="http://www.w3.org/2000/svg" xmlns:xlink="http://www.w3.org/1999/xlink" viewBox="0 0 90 92" width="90" height="92" style="width: 100%; height: 100%; transform: translate3d(0,0,0);" preserveAspectRatio="xMidYMid meet"><defs><clipPath id="__lottie_element_2"><rect width="90" height="92" x="0" y="0"></rect></clipPath><clipPath id="__lottie_element_4"><path d="M0,0 L90,0 L90,92 L0,92z"></path></clipPath></defs><g clip-path="url(#__lottie_element_2)"><g clip-path="url(#__lottie_element_4)" style="display: block;" transform="matrix(1,0,0,1,0,0)" opacity="1"><g style="display: block;" transform="matrix(0.800000011920929,0,0,0.800000011920929,8.75,17.530776977539062)" opacity="1"><g opacity="1" transform="matrix(1,0,0,1,45,47.893001556396484)"><path fill="rgb(250,250,250)" fill-opacity="1" d=" M19.60700035095215,-10.515999794006348 C18.43600082397461,-11.687999725341797 16.535999298095703,-11.687999725341797 15.364999771118164,-10.515999794006348 C15.364999771118164,-10.515999794006348 0.0010000000474974513,4.8480000495910645 0.0010000000474974513,4.8480000495910645 C0.0010000000474974513,4.8480000495910645 -15.36400032043457,-10.515999794006348 -15.36400032043457,-10.515999794006348 C-16.535999298095703,-11.687999725341797 -18.43600082397461,-11.687999725341797 -19.60700035095215,-10.515999794006348 C-20.77899932861328,-9.345000267028809 -20.77899932861328,-7.445000171661377 -19.60700035095215,-6.2729997634887695 C-19.60700035095215,-6.2729997634887695 -2.63700008392334,10.696999549865723 -2.63700008392334,10.696999549865723 C-1.9190000295639038,11.413999557495117 -0.9279999732971191,11.687999725341797 0.0010000000474974513,11.526000022888184 C0.9290000200271606,11.687999725341797 1.9190000295639038,11.413999557495117 2.634999990463257,10.696999549865723 C2.634999990463257,10.696999549865723 19.60700035095215,-6.2729997634887695 19.60700035095215,-6.2729997634887695 C20.77899932861328,-7.445000171661377 20.77899932861328,-9.345000267028809 19.60700035095215,-10.515999794006348z"></path></g></g><g style="display: block;" transform="matrix(0.7324976325035095,0,0,0.7324976325035095,11.787605285644531,2.523651123046875)" opacity="0.4500988401826765"><g opacity="1" transform="matrix(1,0,0,1,45,47.893001556396484)"><path fill="rgb(250,250,250)" fill-opacity="1" d=" M19.60700035095215,-10.515999794006348 C18.43600082397461,-11.687999725341797 16.535999298095703,-11.687999725341797 15.364999771118164,-10.515999794006348 C15.364999771118164,-10.515999794006348 0.0010000000474974513,4.8480000495910645 0.0010000000474974513,4.8480000495910645 C0.0010000000474974513,4.8480000495910645 -15.36400032043457,-10.515999794006348 -15.36400032043457,-10.515999794006348 C-16.535999298095703,-11.687999725341797 -18.43600082397461,-11.687999725341797 -19.60700035095215,-10.515999794006348 C-20.77899932861328,-9.345000267028809 -20.77899932861328,-7.445000171661377 -19.60700035095215,-6.2729997634887695 C-19.60700035095215,-6.2729997634887695 -2.63700008392334,10.696999549865723 -2.63700008392334,10.696999549865723 C-1.9190000295639038,11.413999557495117 -0.9279999732971191,11.687999725341797 0.0010000000474974513,11.526000022888184 C0.9290000200271606,11.687999725341797 1.9190000295639038,11.413999557495117 2.634999990463257,10.696999549865723 C2.634999990463257,10.696999549865723 19.60700035095215,-6.2729997634887695 19.60700035095215,-6.2729997634887695 C20.77899932861328,-7.445000171661377 20.77899932861328,-9.345000267028809 19.60700035095215,-10.515999794006348z"></path></g></g><g style="display: none;"><g><path></path></g></g><g style="display: none;"><g><path></path></g></g></g></g></svg>