<?xml version="1.0" encoding="utf-8"?>
<!-- Generator: Adobe Illustrator 22.0.1, SVG Export Plug-In . SVG Version: 6.00 Build 0)  -->
<svg version="1.1" id="Layer_1" xmlns="http://www.w3.org/2000/svg" xmlns:xlink="http://www.w3.org/1999/xlink" x="0px" y="0px"
	 viewBox="0 0 16 16" enable-background="new 0 0 16 16" xml:space="preserve">
<g id="trs">
	<path fill="#EB6E00" d="M15.42857,5.77679c0,0.13095-0.07738,0.27381-0.23214,0.42857l-3.24107,3.16071l0.76786,4.46429
		c0.00595,0.04167,0.00893,0.10119,0.00893,0.17857c0,0.125-0.03125,0.23065-0.09375,0.31696s-0.15327,0.12946-0.27232,0.12946
		c-0.11309,0-0.23214-0.03571-0.35714-0.10714L8,12.24107l-4.00893,2.10714c-0.13095,0.07143-0.25,0.10714-0.35714,0.10714
		c-0.125,0-0.21875-0.04315-0.28125-0.12946s-0.09375-0.19196-0.09375-0.31696c0-0.03571,0.00595-0.09524,0.01786-0.17857
		l0.76786-4.46429l-3.25-3.16071C0.64583,6.04464,0.57143,5.90179,0.57143,5.77679c0-0.22024,0.16667-0.35714,0.5-0.41071
		l4.48214-0.65179l2.00893-4.0625C7.6756,0.40774,7.82143,0.28571,8,0.28571c0.17857,0,0.3244,0.12202,0.4375,0.36607
		l2.00893,4.0625l4.48214,0.65179C15.26191,5.41964,15.42857,5.55655,15.42857,5.77679z"/>
</g>
</svg>
