<?xml version="1.0" encoding="utf-8"?>
<!-- Generator: Adobe Illustrator 27.2.0, SVG Export Plug-In . SVG Version: 6.00 Build 0)  -->
<!DOCTYPE svg PUBLIC "-//W3C//DTD SVG 1.1//EN" "http://www.w3.org/Graphics/SVG/1.1/DTD/svg11.dtd" [
	<!ENTITY ns_extend "http://ns.adobe.com/Extensibility/1.0/">
	<!ENTITY ns_ai "http://ns.adobe.com/AdobeIllustrator/10.0/">
	<!ENTITY ns_graphs "http://ns.adobe.com/Graphs/1.0/">
	<!ENTITY ns_vars "http://ns.adobe.com/Variables/1.0/">
	<!ENTITY ns_imrep "http://ns.adobe.com/ImageReplacement/1.0/">
	<!ENTITY ns_sfw "http://ns.adobe.com/SaveForWeb/1.0/">
	<!ENTITY ns_custom "http://ns.adobe.com/GenericCustomNamespace/1.0/">
	<!ENTITY ns_adobe_xpath "http://ns.adobe.com/XPath/1.0/">
]>
<svg version="1.1" id="Layer_1" xmlns:x="&ns_extend;" xmlns:i="&ns_ai;" xmlns:graph="&ns_graphs;"
	 xmlns="http://www.w3.org/2000/svg" xmlns:xlink="http://www.w3.org/1999/xlink" x="0px" y="0px" viewBox="0 0 732 498.7"
	 style="enable-background:new 0 0 732 498.7;" xml:space="preserve">
<style type="text/css">
	.st0{fill:#E1011B;}
	.st1{fill:#F9D87B;}
	.st2{fill:#F39502;}
</style>
<metadata>
	<sfw  xmlns="&ns_sfw;">
		<slices></slices>
		<sliceSourceBounds  bottomLeftOrigin="true" height="498.7" width="732" x="0" y="-31.1"></sliceSourceBounds>
	</sfw>
</metadata>
<g id="_x23_2e2c2fff">
</g>
<g id="_x23_e1011bff">
	<path class="st0" d="M265.8,1.9c3.7-2.1,8.1-1.7,12.2-1.9c4,0,8,0,11.9,0.5c4.9,1.6,9.4,4.2,13.6,7.1C336.4,31.3,369,55.4,401.9,79
		c8.5,5.9,17.2,12.5,22,22c9.1,17.6,3.5,41.4-13,52.7c-32,23.6-64.1,47.1-96.6,70.1c0.8,1.3,1.5,2.7,2.9,3.6
		c30.4,22.1,60.8,44.1,91.3,66.1c14.6,10.5,28.9,21.5,43.8,31.5c0.9,1.9,0.2,4.3-1.2,5.8c-8,9.9-14.7,20.8-22.9,30.6
		c-1.6,0.1-3.2-0.1-4.4-1.2c-31.4-22.9-62.9-45.7-94.3-68.6c-14.3-10.2-28.3-20.8-42.9-30.6c-0.6,14.6,0.3,29.4-0.7,44
		c1,14,0.2,28.2,0.6,42.3c-0.4,0.5-1.2,1.5-1.6,2c-7.3,0.6-14.6,0.1-21.9,0.3c-6.7-0.1-13.4,0.4-20.1-0.3c-0.4-0.2-1.2-0.6-1.6-0.8
		c0.2-104.5-0.1-208.9,0.1-313.4C242,20.3,252.5,7.3,265.8,1.9 M286.3,52c0.1,45.3,0,90.6,0.1,135.9c0.7-0.1,2.1-0.4,2.8-0.5
		c11.1-8.4,22.4-16.6,33.8-24.7c17.4-12.6,34.6-25.4,52-37.9c2.1-1.5,4.2-3,6.1-4.9c-0.9-1-1.7-2.1-2.8-2.9
		c-29.2-20.8-57.9-42.2-87.1-63.1C289.7,52.8,288,52.3,286.3,52z"/>
	<path class="st0" d="M588.5,155.4c6.9-1.6,14.5,0.6,19.4,5.6c4.7,4.6,6.9,11.4,6,17.9c-0.9,6.6-5.2,12.6-11.1,15.6
		c-6.2,3.3-14,3.2-20.1-0.4c-6.8-3.8-11.1-11.5-10.6-19.3C572.4,165.7,579.5,157.3,588.5,155.4z"/>
	<path class="st0" d="M359.4,455.5c7.1-2.5,15.5,2.2,17.2,9.5c2.1,7.2-3.1,15.4-10.5,16.7c-7,1.5-14.6-3.6-15.8-10.7
		C348.9,464.5,353.1,457.5,359.4,455.5z"/>
</g>
<g id="_x23_f9d87bff">
	<path class="st1" d="M561.9,16.7C567.6,8.8,576.4,3,586,1.4c7.7-0.4,15.8-1,22.9,2.7c6.2,2.6,11.3,7.2,15.3,12.4
		c31.1,42.4,62.1,84.8,93.2,127.2c3.1,4.4,6.6,8.7,9.5,13.3c7.5,12.8,6.6,29.8-2.2,41.8c-33.7,46-67.6,92.1-101.4,138.2
		c-4,5.6-9.9,9.4-16.2,12.1c-9.1,3.2-19.1,3.3-28.1,0c-10.3-4-17.2-13.1-23.2-21.9c-31.4-42.9-62.9-85.8-94.3-128.7
		c-6.4-8.4-8.1-19.4-6.7-29.7c0.8-1.2,0.8-2.7,1-4.1c1-1.8,1.5-3.9,2.5-5.7c0.6-1.4,1.3-2.8,2.2-4
		C494.3,108.9,528.1,62.8,561.9,16.7 M591.9,50.4c-0.7,2.3-2.4,3.9-3.7,5.8c-19.6,26.9-39.4,53.8-59.1,80.7
		c-9.7,13-18.9,26.3-28.8,39.1c30.7,42.2,61.8,84.2,92.5,126.5c0.3-0.1,1-0.3,1.3-0.4c3.1-5.1,7-9.8,10.4-14.6
		c18.3-25,36.6-50,54.9-75c8.7-12.1,17.9-23.9,26.3-36.3c-24.5-33.8-49.3-67.4-73.9-101.1c-5.8-8.2-12.2-16.1-17.6-24.6
		C593.4,50.4,592.7,50.4,591.9,50.4z"/>
	<path class="st1" d="M420.6,448.4c8.2-5.6,18.9-5.9,28.3-4.2c8.3,1.4,16.9,7.3,17.6,16.3c-4.9,0.2-9.7,0.1-14.6,0.1
		c-1.2-4.3-5.9-5.9-9.9-6s-8.6-0.3-11.9,2.5c-2,2.4,0,5.8,2.9,6.1c9.4,2,19.6,0.8,28.5,5.1c7.1,3.6,7.9,13.6,3.6,19.7
		c-4.1,5.9-11.4,8.4-18.3,9.3c-8.9,0.7-18.6,0-26-5.5c-4-2.9-6.5-7.5-6.9-12.5c4.8-0.1,9.7,0,14.5-0.1c1.3,4.5,6.1,6.7,10.5,7
		c4.4,0.2,9.3,0.4,13-2.4c2.2-2,1.1-5.8-1.8-6.3c-9.8-2.6-20.9-0.5-29.8-6.2C412.6,466.3,413,453.5,420.6,448.4z"/>
	<path class="st1" d="M668,444.9c9.3-2.6,19.8-2,28.3,2.6c6.9,3.7,11.7,10.9,12.5,18.7c-4.8,0-9.6,0-14.4,0c-1-2.9-2.4-5.9-5.2-7.6
		c-5.6-3.6-13.2-3.6-19.2-0.7c-7.9,4.3-8.8,16.5-3,22.9c5.2,5,13.4,5.3,19.8,2.9c4-1.4,6.5-5.2,7.5-9.1c4.8,0,9.6,0,14.4,0
		c-0.7,7-4.6,13.7-10.5,17.6c-7.2,5.1-16.6,6-25.2,5c-7.5-1-15-4.6-19.5-10.9c-5.2-7.2-6.1-16.9-3.4-25.2
		C653,453.1,660,447.1,668,444.9z"/>
	<path class="st1" d="M496.7,444.6c10.1,0,20.2,0,30.3,0c5.2,0,10.5,1.5,14.5,4.9c8.3,7.3,7.1,22.7-2.8,28c-8.3,4.5-18.2,2.7-27.3,3
		c0,5.3,0,10.7,0,16c-4.9,0-9.8,0-14.6,0C496.7,479.2,496.7,461.9,496.7,444.6 M511.4,456.2c0,4.2,0,8.4,0,12.7
		c4.9-0.1,9.9,0.2,14.8-0.1c3.1-0.1,6.3-2.5,6.1-5.8c0.6-3.3-2-6.5-5.3-6.6C521.8,456.1,516.6,456.3,511.4,456.2z"/>
	<path class="st1" d="M573.5,444.6c16,0,31.9,0,47.9,0c0,3.9,0,7.8,0,11.6c-10.8,0-21.6,0-32.4,0c0.5,3,1,6.1,1.5,9.1
		c9.7-0.1,19.4,0,29.1,0c0,3.5,0,6.9,0,10.4c-9.7,0-19.4,0.1-29.1,0c-0.7,3-1,6.2-1.6,9.2c11,0,22,0,32.9,0c0,3.9,0,7.7,0,11.6
		c-16.1,0-32.2,0-48.4,0c1.2-7.9,2.4-15.8,3.6-23.7c0.5-2.6-0.1-5.3-0.5-7.8C575.5,458.2,574.5,451.4,573.5,444.6z"/>
</g>
<g id="_x23_f39502ff">
	<path class="st2" d="M11.7,13.7C21.8,5.1,36.7,3,49.1,7.5c42.3,15.3,84.5,30.7,126.7,46c12.6,4.5,23.4,15.8,24.9,29.4
		c0.2,33.7,0,67.3,0.1,101c0.5,9.4-4.3,18.4-11.1,24.6c-4.7,4.8-11,7.4-17.1,9.7C137.4,231,102.2,243.7,67,256.5
		c-7.2,2.8-14.5,5-21.6,8.1c0.1,26.4-0.1,52.9,0,79.3c0.1,1.9-0.4,3.7-1.2,5.4c-14.5,0.1-29.1,0.1-43.6,0.1
		c-0.2-103.8,0-207.7-0.1-311.5C0,28.6,4.7,19.6,11.7,13.7 M45.5,54c-0.2,54.2-0.1,108.5,0,162.7c0.6-0.2,1.8-0.5,2.3-0.6
		c35.1-12.8,70.1-25.7,105.2-38.1c1.3-0.4,2.4-1.2,3.4-2c0.4-27.1-0.1-54.2,0.3-81.4c-1.5-0.8-3-1.6-4.5-2.2
		c-32.8-11.9-65.6-23.8-98.3-35.7C51.1,55.7,48.4,54.4,45.5,54z"/>
	<path class="st2" d="M269.2,445.2c10.5-2.1,22.5-0.5,30.8,6.7c11,9.3,11.4,28.1,1.1,38.1c-6,6-14.7,8.6-23.1,8.5
		c-8.4,0.2-17.3-2.2-23.5-8.1c-10.1-9.4-10.4-27.1-1-37C257.8,449.1,263.4,446.3,269.2,445.2 M271.3,458.1
		c-8.3,1.9-12.2,11.9-8.8,19.3c2.5,6,9.5,8.5,15.6,8.1c6,0.2,12.8-2.7,14.9-8.7c1.7-5.2,1.1-11.9-3.3-15.7
		C284.7,457,277.4,456.5,271.3,458.1z"/>
	<path class="st2" d="M0,497.5c7.9-17.3,15.7-34.6,23.7-51.9c6.2,0,12.5,0.1,18.7-0.1c8.3,17.2,15.9,34.7,23.8,52
		c-5.1,0-10.3,0-15.4-0.1c-1.4-3.3-2.8-6.7-4.3-10c-8.9,0-17.8,0-26.7,0c-1.5,3.3-2.9,6.7-4.4,10C10.3,497.5,5.1,497.5,0,497.5
		 M24.8,475.9c5.6,0,11.2,0,16.8,0c-2.8-6.4-5.6-12.9-8.4-19.3C30.4,463,27.6,469.5,24.8,475.9z"/>
	<path class="st2" d="M89.3,445.6c4.8,0,9.6,0,14.3,0c0.1,10.1-0.1,20.2,0.1,30.3c0.1,4.5,3.4,8.6,7.8,9.4c4.2,0.7,9.1,0.7,12.5-2.4
		c3-2.7,3.3-7.1,3.4-10.9c0-8.8,0-17.6,0-26.3c4.8,0,9.6,0,14.3,0c0.1,9.8,0,19.6,0,29.4c0.6,11-8.1,21-18.9,22.9
		c-8,1.5-16.9,0.9-23.9-3.8c-6-3.9-9.8-11-9.7-18.1C89.3,465.8,89.3,455.7,89.3,445.6z"/>
	<path class="st2" d="M169.1,445.6c18,0,36,0,54,0c0,4.3,0,8.6,0,12.9c-6.5,0-13.1,0-19.6,0c0,13,0,26,0,39c-4.9,0.1-9.8,0.1-14.7,0
		c0-13,0-26,0-39c-6.6,0-13.1,0-19.6,0C169,454.2,169,449.9,169.1,445.6z"/>
</g>
</svg>
